<svg width="2063" height="1669" viewBox="0 0 2063 1669" fill="none" xmlns="http://www.w3.org/2000/svg">
<rect x="52" y="203" width="796" height="187" fill="#F0AD4E"/>
<rect x="52" y="939" width="770" height="187" fill="#F0AD4E"/>
<rect x="52" y="571" width="796" height="187" fill="#F0AD4E"/>
<rect width="1356.75" height="212.209" transform="matrix(0.350755 -0.936467 0.962497 0.271294 142.357 1270.55)" fill="white"/>
<path d="M2001.98 1081.68V240.324C2001.98 215.926 1984.4 196 1962.61 196H861.373C839.7 196 822 215.79 822 240.324V1081.68C822 1106.07 839.579 1126 861.373 1126H1962.73C2004.03 1126 2001.98 1081.68 2001.98 1081.68ZM1136.62 1081.68H861.373V904.513H1136.74V1081.68H1136.62ZM1136.62 860.324H861.373V683.162H1136.74V860.324H1136.62ZM1136.62 638.973H861.373V461.811H1136.74V638.973H1136.62ZM1136.62 417.487H861.373V240.324H1136.74V417.487H1136.62ZM1410.79 1081.68H1175.99V904.513H1411.99L1410.79 1081.68ZM1410.79 860.324H1175.99V683.162H1411.99L1410.79 860.324ZM1175.99 638.973V461.811H1410.79L1411.99 638.973H1175.99ZM1411.99 417.487H1175.99V240.324H1411.99V417.487ZM1687.36 1081.68H1452.57L1450.16 904.513H1687.36V1081.68ZM1687.36 860.324H1452.57L1450.16 683.162H1687.36V860.324ZM1687.36 638.973H1451.36L1450.16 461.811H1687.36V638.973ZM1687.36 417.487H1451.36L1450.16 240.324H1687.36V417.487ZM1962.61 1081.68H1726.61L1725.41 904.513H1962.61V1081.68ZM1962.61 860.324H1726.61L1725.41 683.162H1962.61V860.324ZM1962.61 638.973H1725.41V461.811H1962.61V638.973ZM1962.61 417.487H1726.61L1725.41 240.324H1962.61V417.487ZM1097.37 727.487H900.625V816H1097.25V727.487H1097.37ZM1097.37 948.838H900.625V1037.35H1097.25V948.838H1097.37ZM1097.37 506.135H900.625V594.649H1097.25V506.135H1097.37ZM1372.62 284.649H1215.37V373.162H1372.74V284.649H1372.62ZM1647.99 284.649H1490.62V373.162H1647.99V284.649ZM1097.37 284.649H900.625V373.162H1097.25V284.649H1097.37ZM1923.36 284.649H1765.99V373.162H1923.36V284.649Z" fill="#0275D8"/>
<path d="M83.7 1562.89C70.56 1562.89 58.68 1560.64 48.06 1556.14C37.62 1551.64 29.34 1545.16 23.22 1536.7C17.1 1528.24 13.95 1518.25 13.77 1506.73H54.27C54.81 1514.47 57.51 1520.59 62.37 1525.09C67.41 1529.59 74.25 1531.84 82.89 1531.84C91.71 1531.84 98.64 1529.77 103.68 1525.63C108.72 1521.31 111.24 1515.73 111.24 1508.89C111.24 1503.31 109.53 1498.72 106.11 1495.12C102.69 1491.52 98.37 1488.73 93.15 1486.75C88.11 1484.59 81.09 1482.25 72.09 1479.73C59.85 1476.13 49.86 1472.62 42.12 1469.2C34.56 1465.6 27.99 1460.29 22.41 1453.27C17.01 1446.07 14.31 1436.53 14.31 1424.65C14.31 1413.49 17.1 1403.77 22.68 1395.49C28.26 1387.21 36.09 1380.91 46.17 1376.59C56.25 1372.09 67.77 1369.84 80.73 1369.84C100.17 1369.84 115.92 1374.61 127.98 1384.15C140.22 1393.51 146.97 1406.65 148.23 1423.57H106.65C106.29 1417.09 103.5 1411.78 98.28 1407.64C93.24 1403.32 86.49 1401.16 78.03 1401.16C70.65 1401.16 64.71 1403.05 60.21 1406.83C55.89 1410.61 53.73 1416.1 53.73 1423.3C53.73 1428.34 55.35 1432.57 58.59 1435.99C62.01 1439.23 66.15 1441.93 71.01 1444.09C76.05 1446.07 83.07 1448.41 92.07 1451.11C104.31 1454.71 114.3 1458.31 122.04 1461.91C129.78 1465.51 136.44 1470.91 142.02 1478.11C147.6 1485.31 150.39 1494.76 150.39 1506.46C150.39 1516.54 147.78 1525.9 142.56 1534.54C137.34 1543.18 129.69 1550.11 119.61 1555.33C109.53 1560.37 97.56 1562.89 83.7 1562.89ZM322.211 1482.97C322.211 1488.37 321.851 1493.23 321.131 1497.55H211.781C212.681 1508.35 216.461 1516.81 223.121 1522.93C229.781 1529.05 237.971 1532.11 247.691 1532.11C261.731 1532.11 271.721 1526.08 277.661 1514.02H318.431C314.111 1528.42 305.831 1540.3 293.591 1549.66C281.351 1558.84 266.321 1563.43 248.501 1563.43C234.101 1563.43 221.141 1560.28 209.621 1553.98C198.281 1547.5 189.371 1538.41 182.891 1526.71C176.591 1515.01 173.441 1501.51 173.441 1486.21C173.441 1470.73 176.591 1457.14 182.891 1445.44C189.191 1433.74 198.011 1424.74 209.351 1418.44C220.691 1412.14 233.741 1408.99 248.501 1408.99C262.721 1408.99 275.411 1412.05 286.571 1418.17C297.911 1424.29 306.641 1433.02 312.761 1444.36C319.061 1455.52 322.211 1468.39 322.211 1482.97ZM283.061 1472.17C282.881 1462.45 279.371 1454.71 272.531 1448.95C265.691 1443.01 257.321 1440.04 247.421 1440.04C238.061 1440.04 230.141 1442.92 223.661 1448.68C217.361 1454.26 213.491 1462.09 212.051 1472.17H283.061ZM387.602 1434.64C392.462 1426.72 398.762 1420.51 406.502 1416.01C414.422 1411.51 423.422 1409.26 433.502 1409.26V1448.95H423.512C411.632 1448.95 402.632 1451.74 396.512 1457.32C390.572 1462.9 387.602 1472.62 387.602 1486.48V1561H349.802V1411.42H387.602V1434.64ZM521.332 1526.17L559.132 1411.42H599.362L544.012 1561H498.112L443.032 1411.42H483.532L521.332 1526.17ZM759.643 1482.97C759.643 1488.37 759.283 1493.23 758.563 1497.55H649.213C650.113 1508.35 653.893 1516.81 660.553 1522.93C667.213 1529.05 675.403 1532.11 685.123 1532.11C699.163 1532.11 709.153 1526.08 715.093 1514.02H755.863C751.543 1528.42 743.263 1540.3 731.023 1549.66C718.783 1558.84 703.753 1563.43 685.933 1563.43C671.533 1563.43 658.573 1560.28 647.053 1553.98C635.713 1547.5 626.803 1538.41 620.323 1526.71C614.023 1515.01 610.873 1501.51 610.873 1486.21C610.873 1470.73 614.023 1457.14 620.323 1445.44C626.623 1433.74 635.443 1424.74 646.783 1418.44C658.123 1412.14 671.173 1408.99 685.933 1408.99C700.153 1408.99 712.843 1412.05 724.003 1418.17C735.343 1424.29 744.073 1433.02 750.193 1444.36C756.493 1455.52 759.643 1468.39 759.643 1482.97ZM720.493 1472.17C720.313 1462.45 716.803 1454.71 709.963 1448.95C703.123 1443.01 694.753 1440.04 684.853 1440.04C675.493 1440.04 667.573 1442.92 661.093 1448.68C654.793 1454.26 650.923 1462.09 649.483 1472.17H720.493ZM825.034 1361.2V1561H787.234V1361.2H825.034ZM1001.43 1482.97C1001.43 1488.37 1001.07 1493.23 1000.35 1497.55H891C891.9 1508.35 895.68 1516.81 902.34 1522.93C909 1529.05 917.19 1532.11 926.91 1532.11C940.95 1532.11 950.94 1526.08 956.88 1514.02H997.65C993.33 1528.42 985.05 1540.3 972.81 1549.66C960.57 1558.84 945.54 1563.43 927.72 1563.43C913.32 1563.43 900.36 1560.28 888.84 1553.98C877.5 1547.5 868.59 1538.41 862.11 1526.71C855.81 1515.01 852.66 1501.51 852.66 1486.21C852.66 1470.73 855.81 1457.14 862.11 1445.44C868.41 1433.74 877.23 1424.74 888.57 1418.44C899.91 1412.14 912.96 1408.99 927.72 1408.99C941.94 1408.99 954.63 1412.05 965.79 1418.17C977.13 1424.29 985.86 1433.02 991.98 1444.36C998.28 1455.52 1001.43 1468.39 1001.43 1482.97ZM962.28 1472.17C962.1 1462.45 958.59 1454.71 951.75 1448.95C944.91 1443.01 936.54 1440.04 926.64 1440.04C917.28 1440.04 909.36 1442.92 902.88 1448.68C896.58 1454.26 892.71 1462.09 891.27 1472.17H962.28ZM1086.26 1563.43C1074.02 1563.43 1063.04 1561.27 1053.32 1556.95C1043.6 1552.45 1035.86 1546.42 1030.1 1538.86C1024.52 1531.3 1021.46 1522.93 1020.92 1513.75H1058.99C1059.71 1519.51 1062.5 1524.28 1067.36 1528.06C1072.4 1531.84 1078.61 1533.73 1085.99 1533.73C1093.19 1533.73 1098.77 1532.29 1102.73 1529.41C1106.87 1526.53 1108.94 1522.84 1108.94 1518.34C1108.94 1513.48 1106.42 1509.88 1101.38 1507.54C1096.52 1505.02 1088.69 1502.32 1077.89 1499.44C1066.73 1496.74 1057.55 1493.95 1050.35 1491.07C1043.33 1488.19 1037.21 1483.78 1031.99 1477.84C1026.95 1471.9 1024.43 1463.89 1024.43 1453.81C1024.43 1445.53 1026.77 1437.97 1031.45 1431.13C1036.31 1424.29 1043.15 1418.89 1051.97 1414.93C1060.97 1410.97 1071.5 1408.99 1083.56 1408.99C1101.38 1408.99 1115.6 1413.49 1126.22 1422.49C1136.84 1431.31 1142.69 1443.28 1143.77 1458.4H1107.59C1107.05 1452.46 1104.53 1447.78 1100.03 1444.36C1095.71 1440.76 1089.86 1438.96 1082.48 1438.96C1075.64 1438.96 1070.33 1440.22 1066.55 1442.74C1062.95 1445.26 1061.15 1448.77 1061.15 1453.27C1061.15 1458.31 1063.67 1462.18 1068.71 1464.88C1073.75 1467.4 1081.58 1470.01 1092.2 1472.71C1103 1475.41 1111.91 1478.2 1118.93 1481.08C1125.95 1483.96 1131.98 1488.46 1137.02 1494.58C1142.24 1500.52 1144.94 1508.44 1145.12 1518.34C1145.12 1526.98 1142.69 1534.72 1137.83 1541.56C1133.15 1548.4 1126.31 1553.8 1117.31 1557.76C1108.49 1561.54 1098.14 1563.43 1086.26 1563.43ZM1233.39 1563.43C1221.15 1563.43 1210.17 1561.27 1200.45 1556.95C1190.73 1552.45 1182.99 1546.42 1177.23 1538.86C1171.65 1531.3 1168.59 1522.93 1168.05 1513.75H1206.12C1206.84 1519.51 1209.63 1524.28 1214.49 1528.06C1219.53 1531.84 1225.74 1533.73 1233.12 1533.73C1240.32 1533.73 1245.9 1532.29 1249.86 1529.41C1254 1526.53 1256.07 1522.84 1256.07 1518.34C1256.07 1513.48 1253.55 1509.88 1248.51 1507.54C1243.65 1505.02 1235.82 1502.32 1225.02 1499.44C1213.86 1496.74 1204.68 1493.95 1197.48 1491.07C1190.46 1488.19 1184.34 1483.78 1179.12 1477.84C1174.08 1471.9 1171.56 1463.89 1171.56 1453.81C1171.56 1445.53 1173.9 1437.97 1178.58 1431.13C1183.44 1424.29 1190.28 1418.89 1199.1 1414.93C1208.1 1410.97 1218.63 1408.99 1230.69 1408.99C1248.51 1408.99 1262.73 1413.49 1273.35 1422.49C1283.97 1431.31 1289.82 1443.28 1290.9 1458.4H1254.72C1254.18 1452.46 1251.66 1447.78 1247.16 1444.36C1242.84 1440.76 1236.99 1438.96 1229.61 1438.96C1222.77 1438.96 1217.46 1440.22 1213.68 1442.74C1210.08 1445.26 1208.28 1448.77 1208.28 1453.27C1208.28 1458.31 1210.8 1462.18 1215.84 1464.88C1220.88 1467.4 1228.71 1470.01 1239.33 1472.71C1250.13 1475.41 1259.04 1478.2 1266.06 1481.08C1273.08 1483.96 1279.11 1488.46 1284.15 1494.58C1289.37 1500.52 1292.07 1508.44 1292.25 1518.34C1292.25 1526.98 1289.82 1534.72 1284.96 1541.56C1280.28 1548.4 1273.44 1553.8 1264.44 1557.76C1255.62 1561.54 1245.27 1563.43 1233.39 1563.43Z" fill="black" fill-opacity="0.5"/>
<path d="M1309.45 1466.5C1309.45 1447.96 1313.59 1431.4 1321.87 1416.82C1330.33 1402.06 1341.76 1390.63 1356.16 1382.53C1370.74 1374.25 1387.03 1370.11 1405.03 1370.11C1426.09 1370.11 1444.54 1375.51 1460.38 1386.31C1476.22 1397.11 1487.29 1412.05 1493.59 1431.13H1450.12C1445.8 1422.13 1439.68 1415.38 1431.76 1410.88C1424.02 1406.38 1415.02 1404.13 1404.76 1404.13C1393.78 1404.13 1383.97 1406.74 1375.33 1411.96C1366.87 1417 1360.21 1424.2 1355.35 1433.56C1350.67 1442.92 1348.33 1453.9 1348.33 1466.5C1348.33 1478.92 1350.67 1489.9 1355.35 1499.44C1360.21 1508.8 1366.87 1516.09 1375.33 1521.31C1383.97 1526.35 1393.78 1528.87 1404.76 1528.87C1415.02 1528.87 1424.02 1526.62 1431.76 1522.12C1439.68 1517.44 1445.8 1510.6 1450.12 1501.6H1493.59C1487.29 1520.86 1476.22 1535.89 1460.38 1546.69C1444.72 1557.31 1426.27 1562.62 1405.03 1562.62C1387.03 1562.62 1370.74 1558.57 1356.16 1550.47C1341.76 1542.19 1330.33 1530.76 1321.87 1516.18C1313.59 1501.6 1309.45 1485.04 1309.45 1466.5ZM1623.08 1561L1581.5 1487.56H1563.68V1561H1525.88V1372.54H1596.62C1611.2 1372.54 1623.62 1375.15 1633.88 1380.37C1644.14 1385.41 1651.79 1392.34 1656.83 1401.16C1662.05 1409.8 1664.66 1419.52 1664.66 1430.32C1664.66 1442.74 1661.06 1453.99 1653.86 1464.07C1646.66 1473.97 1635.95 1480.81 1621.73 1484.59L1666.82 1561H1623.08ZM1563.68 1459.21H1595.27C1605.53 1459.21 1613.18 1456.78 1618.22 1451.92C1623.26 1446.88 1625.78 1439.95 1625.78 1431.13C1625.78 1422.49 1623.26 1415.83 1618.22 1411.15C1613.18 1406.29 1605.53 1403.86 1595.27 1403.86H1563.68V1459.21ZM1736.1 1372.54V1489.18C1736.1 1501.96 1739.43 1511.77 1746.09 1518.61C1752.75 1525.27 1762.11 1528.6 1774.17 1528.6C1786.41 1528.6 1795.86 1525.27 1802.52 1518.61C1809.18 1511.77 1812.51 1501.96 1812.51 1489.18V1372.54H1850.58V1488.91C1850.58 1504.93 1847.07 1518.52 1840.05 1529.68C1833.21 1540.66 1823.94 1548.94 1812.24 1554.52C1800.72 1560.1 1787.85 1562.89 1773.63 1562.89C1759.59 1562.89 1746.81 1560.1 1735.29 1554.52C1723.95 1548.94 1714.95 1540.66 1708.29 1529.68C1701.63 1518.52 1698.3 1504.93 1698.3 1488.91V1372.54H1736.1ZM1952.99 1372.54C1972.79 1372.54 1990.16 1376.41 2005.1 1384.15C2020.22 1391.89 2031.83 1402.96 2039.93 1417.36C2048.21 1431.58 2052.35 1448.14 2052.35 1467.04C2052.35 1485.94 2048.21 1502.5 2039.93 1516.72C2031.83 1530.76 2020.22 1541.65 2005.1 1549.39C1990.16 1557.13 1972.79 1561 1952.99 1561H1887.11V1372.54H1952.99ZM1951.64 1528.87C1971.44 1528.87 1986.74 1523.47 1997.54 1512.67C2008.34 1501.87 2013.74 1486.66 2013.74 1467.04C2013.74 1447.42 2008.34 1432.12 1997.54 1421.14C1986.74 1409.98 1971.44 1404.4 1951.64 1404.4H1924.91V1528.87H1951.64Z" fill="#5CB85C"/>
</svg>
